<?xml version="1.0" standalone="no"?><!DOCTYPE svg PUBLIC "-//W3C//DTD SVG 1.1//EN" "http://www.w3.org/Graphics/SVG/1.1/DTD/svg11.dtd"><svg t="1738893185383" class="icon" viewBox="0 0 1024 1024" version="1.1" xmlns="http://www.w3.org/2000/svg" p-id="5450" xmlns:xlink="http://www.w3.org/1999/xlink" width="200" height="200"><path d="M0 1024V465.188571L465.188571 0H1024" fill="#E4ACB2" p-id="5451"></path><path d="M26.331429 1024L1024 26.331429V0L0 1024z" fill="#333333" opacity=".25" p-id="5452"></path><path d="M93.622857 454.948571c-8.777143 8.777143-14.628571 20.48-13.165714 32.182858 1.462857 13.165714 7.314286 26.331429 17.554286 35.108571 8.777143 10.24 21.942857 17.554286 35.108571 19.017143 13.165714 0 24.868571-4.388571 32.182857-13.165714 7.314286-7.314286 13.165714-16.091429 17.554286-24.868572l8.777143 8.777143c-4.388571 10.24-11.702857 19.017143-19.017143 26.331429-10.24 11.702857-26.331429 19.017143-40.96 19.017142-17.554286-1.462857-32.182857-10.24-43.885714-23.405714-8.777143-8.777143-14.628571-17.554286-19.017143-29.257143-2.925714-10.24-4.388571-20.48-1.462857-30.72 2.925714-10.24 8.777143-20.48 17.554285-27.794285 8.777143-8.777143 17.554286-14.628571 29.257143-19.017143l4.388572 13.165714c-8.777143 2.925714-17.554286 8.777143-24.868572 14.628571zM239.908571 403.748571c10.24 8.777143 16.091429 20.48 17.554286 33.645715 0 11.702857-4.388571 23.405714-13.165714 32.182857-5.851429 5.851429-11.702857 10.24-20.48 11.702857-7.314286 1.462857-16.091429 1.462857-23.405714-1.462857-8.777143-2.925714-16.091429-8.777143-21.942858-14.628572-10.24-8.777143-16.091429-20.48-17.554285-33.645714 0-11.702857 5.851429-23.405714 14.628571-32.182857 7.314286-8.777143 19.017143-13.165714 30.72-13.165714 13.165714 1.462857 24.868571 8.777143 33.645714 17.554285z m-51.2 51.2c5.851429 7.314286 14.628571 13.165714 24.868572 14.628572 8.777143 1.462857 16.091429-2.925714 21.942857-8.777143 5.851429-5.851429 8.777143-13.165714 8.777143-21.942857-1.462857-10.24-7.314286-17.554286-14.628572-24.868572-5.851429-7.314286-14.628571-13.165714-24.868571-14.628571-8.777143-1.462857-16.091429 2.925714-21.942857 8.777143-5.851429 5.851429-8.777143 13.165714-7.314286 21.942857 1.462857 8.777143 5.851429 17.554286 13.165714 24.868571zM378.88 332.068571l-43.885714-43.885714c-4.388571-4.388571-8.777143-7.314286-14.628572-8.777143-5.851429 0-11.702857 2.925714-14.628571 7.314286-5.851429 4.388571-8.777143 11.702857-8.777143 19.017143 1.462857 8.777143 5.851429 16.091429 11.702857 21.942857l36.571429 36.571429-8.777143 8.777142-43.885714-42.422857c-4.388571-4.388571-8.777143-7.314286-14.628572-8.777143-5.851429 0-11.702857 2.925714-14.628571 7.314286-5.851429 4.388571-8.777143 11.702857-8.777143 19.017143 2.925714 8.777143 7.314286 17.554286 14.628571 23.405714l35.108572 35.108572-10.24 10.24-65.828572-65.828572 8.777143-8.777143 10.24 7.314286c-1.462857-5.851429-1.462857-10.24 0-16.091428 1.462857-5.851429 4.388571-10.24 8.777143-14.628572 7.314286-10.24 20.48-13.165714 32.182857-8.777143-1.462857-5.851429-1.462857-11.702857 0-17.554285 1.462857-5.851429 5.851429-11.702857 10.24-16.091429 5.851429-7.314286 14.628571-10.24 21.942857-11.702857 8.777143 1.462857 17.554286 5.851429 23.405715 13.165714l43.885714 43.885714-8.777143 10.24zM327.68 213.577143c-1.462857-1.462857-2.925714-4.388571-2.925714-7.314286s1.462857-4.388571 2.925714-5.851428c1.462857-1.462857 2.925714-2.925714 5.851429-2.925715 5.851429 0 10.24 4.388571 10.24 10.24 0 2.925714-1.462857 4.388571-2.925715 5.851429-1.462857 1.462857-2.925714 2.925714-5.851428 2.925714-4.388571 1.462857-5.851429 0-7.314286-2.925714z m95.085714 73.142857l-10.24 10.24-65.828571-65.828571 10.24-10.24 65.828571 65.828571zM492.982857 217.965714l-43.885714-42.422857c-4.388571-4.388571-10.24-7.314286-16.091429-8.777143-5.851429 0-11.702857 2.925714-16.091428 7.314286-5.851429 5.851429-10.24 13.165714-8.777143 20.48 1.462857 8.777143 5.851429 17.554286 13.165714 23.405714l35.108572 35.108572-10.24 10.24-65.828572-65.828572 8.777143-8.777143 10.24 7.314286c-1.462857-5.851429-1.462857-11.702857 1.462857-16.091428 1.462857-5.851429 5.851429-10.24 10.24-14.628572 5.851429-7.314286 14.628571-11.702857 23.405714-11.702857 10.24 0 19.017143 4.388571 24.868572 13.165714l43.885714 43.885715-10.24 7.314285zM513.462857 62.902857l5.851429 5.851429-10.24 13.165714c2.925714 0 5.851429 1.462857 8.777143 2.925714 4.388571 2.925714 7.314286 4.388571 8.777142 7.314286 5.851429 5.851429 8.777143 13.165714 8.777143 21.942857-1.462857 8.777143-5.851429 17.554286-11.702857 23.405714l-5.851428 5.851429c-1.462857 4.388571-1.462857 10.24 1.462857 14.628571 1.462857 2.925714 4.388571 2.925714 7.314285 2.925715 2.925714-1.462857 7.314286-2.925714 8.777143-5.851429l11.702857-11.702857c5.851429-5.851429 13.165714-10.24 20.48-11.702857 7.314286-1.462857 14.628571 1.462857 19.017143 7.314286 7.314286 5.851429 10.24 16.091429 7.314286 26.331428-2.925714 11.702857-10.24 23.405714-20.48 32.182857-7.314286 7.314286-16.091429 11.702857-24.868571 14.628572-7.314286 1.462857-16.091429-1.462857-20.48-5.851429-4.388571-4.388571-5.851429-8.777143-7.314286-14.628571 0-5.851429 1.462857-11.702857 4.388571-16.091429-2.925714 1.462857-5.851429 1.462857-7.314285 1.462857-2.925714 0-5.851429-1.462857-7.314286-4.388571-2.925714-2.925714-4.388571-5.851429-4.388572-8.777143-1.462857-4.388571-1.462857-7.314286 0-11.702857-4.388571 1.462857-10.24 2.925714-16.091428 1.462857-5.851429-1.462857-10.24-4.388571-14.628572-8.777143-7.314286-5.851429-10.24-14.628571-10.24-23.405714 1.462857-8.777143 5.851429-17.554286 13.165715-24.868572 2.925714-2.925714 7.314286-5.851429 10.24-8.777142l24.868571-24.868572z m24.868572 130.194286c2.925714 2.925714 8.777143 4.388571 13.165714 2.925714 5.851429-1.462857 11.702857-5.851429 16.091428-10.24 7.314286-5.851429 11.702857-13.165714 14.628572-21.942857 1.462857-5.851429 0-11.702857-4.388572-16.091429-2.925714-2.925714-7.314286-4.388571-10.24-4.388571-5.851429 1.462857-10.24 5.851429-14.628571 10.24l-11.702857 11.702857c-4.388571 2.925714-7.314286 8.777143-7.314286 13.165714-1.462857 7.314286 1.462857 11.702857 4.388572 14.628572zM487.131429 131.657143c2.925714 4.388571 8.777143 7.314286 14.628571 5.851428 5.851429 0 10.24-2.925714 14.628571-7.314285 8.777143-5.851429 10.24-17.554286 2.925715-24.868572l-2.925715-2.925714c-7.314286-8.777143-19.017143-8.777143-26.331428-2.925714l-2.925714 2.925714c-4.388571 4.388571-7.314286 8.777143-7.314286 14.628571 1.462857 5.851429 2.925714 10.24 7.314286 14.628572zM365.714286 555.885714c5.851429 5.851429 8.777143 13.165714 7.314285 21.942857-1.462857 10.24-7.314286 17.554286-14.628571 24.868572s-14.628571 13.165714-24.868571 16.091428l-8.777143-8.777142c4.388571-1.462857 10.24-4.388571 14.628571-5.851429 4.388571-2.925714 8.777143-5.851429 11.702857-8.777143 4.388571-4.388571 7.314286-8.777143 10.24-14.628571 1.462857-4.388571 0-8.777143-2.925714-11.702857-2.925714-2.925714-5.851429-4.388571-10.24-2.925715-7.314286 1.462857-13.165714 2.925714-19.017143 7.314286-5.851429 2.925714-13.165714 5.851429-19.017143 7.314286-4.388571 1.462857-7.314286 1.462857-11.702857 0-4.388571-1.462857-7.314286-2.925714-10.24-5.851429-5.851429-4.388571-7.314286-11.702857-5.851428-19.017143 1.462857-8.777143 5.851429-16.091429 13.165714-23.405714s16.091429-13.165714 24.868571-16.091429l4.388572 11.702858c-8.777143 2.925714-16.091429 7.314286-21.942857 14.628571-4.388571 2.925714-7.314286 7.314286-8.777143 13.165714-1.462857 2.925714 0 7.314286 2.925714 10.24 1.462857 1.462857 2.925714 2.925714 5.851429 2.925715h7.314285c5.851429-1.462857 11.702857-4.388571 16.091429-7.314286 7.314286-4.388571 16.091429-7.314286 24.868571-7.314286 4.388571-4.388571 10.24-2.925714 14.628572 1.462857zM427.154286 463.725714c10.24 8.777143 16.091429 20.48 17.554285 32.182857 0 11.702857-4.388571 23.405714-13.165714 32.182858-5.851429 5.851429-11.702857 10.24-20.48 11.702857-7.314286 1.462857-16.091429 1.462857-21.942857-1.462857-8.777143-2.925714-16.091429-8.777143-21.942857-14.628572-10.24-8.777143-16.091429-20.48-17.554286-33.645714 0-11.702857 4.388571-23.405714 13.165714-32.182857 8.777143-8.777143 19.017143-13.165714 30.72-13.165715 13.165714 2.925714 24.868571 10.24 33.645715 19.017143z m-49.737143 51.2c5.851429 7.314286 14.628571 13.165714 24.868571 14.628572 8.777143 1.462857 16.091429-2.925714 21.942857-8.777143 5.851429-5.851429 8.777143-13.165714 8.777143-21.942857-1.462857-10.24-7.314286-17.554286-14.628571-24.868572-5.851429-7.314286-14.628571-13.165714-24.868572-14.628571-8.777143-1.462857-16.091429 2.925714-21.942857 8.777143-5.851429 5.851429-8.777143 13.165714-8.777143 21.942857 1.462857 10.24 5.851429 19.017143 14.628572 24.868571zM504.685714 386.194286c10.24 8.777143 16.091429 20.48 17.554286 33.645714 0 11.702857-4.388571 23.405714-13.165714 32.182857-5.851429 5.851429-11.702857 10.24-20.48 11.702857-7.314286 1.462857-14.628571 1.462857-21.942857-1.462857-8.777143-2.925714-16.091429-8.777143-21.942858-14.628571-10.24-8.777143-16.091429-20.48-17.554285-33.645715 0-11.702857 4.388571-23.405714 13.165714-32.182857 7.314286-8.777143 19.017143-13.165714 30.72-13.165714 13.165714 1.462857 26.331429 8.777143 33.645714 17.554286z m-49.737143 51.2c5.851429 7.314286 14.628571 13.165714 24.868572 14.628571 16.091429 0 29.257143-11.702857 29.257143-27.794286v-1.462857c-1.462857-10.24-7.314286-17.554286-14.628572-24.868571-5.851429-7.314286-14.628571-13.165714-24.868571-14.628572-16.091429 0-29.257143 11.702857-30.72 27.794286v1.462857c2.925714 8.777143 8.777143 17.554286 16.091428 24.868572zM604.16 354.011429l-42.422857-42.422858c-4.388571-4.388571-10.24-7.314286-16.091429-8.777142-5.851429 0-11.702857 2.925714-16.091428 7.314285-5.851429 4.388571-10.24 13.165714-10.24 20.48 1.462857 8.777143 5.851429 17.554286 13.165714 23.405715l35.108571 35.108571-10.24 10.24-65.828571-65.828571 8.777143-8.777143 10.24 7.314285c-1.462857-5.851429-1.462857-11.702857 1.462857-16.091428 1.462857-5.851429 5.851429-10.24 10.24-14.628572 5.851429-7.314286 14.628571-11.702857 23.405714-11.702857 10.24 0 19.017143 4.388571 24.868572 13.165715l43.885714 43.885714-10.24 7.314286z" fill="#FFFFFF" p-id="5453"></path></svg>